# Blender v2.72 (sub 0) OBJ File: 'soldier.blend'
# www.blender.org
o Cylinder
v 0.127205 1.089894 0.292108
v 0.127205 1.238450 0.292108
v -0.066138 1.238450 0.292108
v -0.066138 1.089894 0.292108
v 0.127205 1.089894 0.134958
v 0.127205 1.238450 0.134958
v -0.066138 1.238450 0.134958
v -0.066138 1.089894 0.134958
v 0.127205 1.089894 -0.160078
v 0.127205 1.238450 -0.160078
v -0.066138 1.238450 -0.160078
v -0.066138 1.089894 -0.160078
v 0.127205 1.089894 -0.317228
v 0.127205 1.238450 -0.317228
v -0.066138 1.238450 -0.317228
v -0.066138 1.089894 -0.317228
v 0.218344 0.460108 -0.412511
v 0.218344 0.460108 -0.274362
v -0.085728 0.460108 -0.274362
v -0.085728 0.460108 -0.412511
v 0.218344 1.121434 -0.412511
v 0.218344 1.121434 -0.274362
v -0.085728 1.121434 -0.274362
v -0.085728 1.121434 -0.412511
v 0.218344 0.460108 0.227301
v 0.218344 0.460108 0.365450
v -0.085728 0.460108 0.365450
v -0.085728 0.460108 0.227301
v 0.218344 1.121434 0.227301
v 0.218344 1.121434 0.365450
v -0.085728 1.121434 0.365450
v -0.085728 1.121434 0.227301
v 0.152036 0.003324 -0.026092
v 0.152036 0.003324 0.112057
v -0.152036 0.003324 0.112057
v -0.152036 0.003324 -0.026092
v 0.152036 0.664649 -0.026092
v 0.152036 0.664649 0.112057
v -0.152036 0.664649 0.112057
v -0.152036 0.664649 -0.026092
v 0.152036 0.003324 -0.188703
v 0.152036 0.003324 -0.050554
v -0.152036 0.003324 -0.050554
v -0.152036 0.003324 -0.188703
v 0.152036 0.664649 -0.188703
v 0.152036 0.664649 -0.050554
v -0.152036 0.664649 -0.050554
v -0.152036 0.664649 -0.188703
v -0.000000 0.592169 0.172636
v -0.000000 1.253495 0.172636
v -0.126413 0.592169 0.085740
v -0.126413 1.253495 0.085740
v -0.149115 0.592169 -0.061030
v -0.149115 1.253495 -0.061030
v -0.058182 0.592169 -0.203524
v -0.058182 1.253495 -0.203524
v 0.084467 0.592169 -0.185456
v 0.084467 1.253495 -0.185456
v 0.140463 0.592169 -0.097708
v 0.140463 1.253495 -0.097708
v 0.126413 0.592169 0.085740
v 0.126413 1.253495 0.085740
v 0.064459 1.815773 0.006267
v 0.140409 1.612875 0.032237
v 0.092391 1.655240 0.116738
v 0.148078 1.482002 0.038305
v 0.104799 1.358743 0.086993
v 0.052900 1.832871 -0.041641
v 0.078076 1.511272 0.150518
v -0.012883 1.197113 0.038003
v 0.052783 1.388495 0.148900
v -0.008059 1.625211 0.165819
v -0.019100 1.348211 0.148091
v 0.031330 1.797075 0.079594
v -0.014884 1.483197 0.172599
v -0.009483 1.729595 0.129332
v -0.075192 1.729213 0.095645
v -0.041652 1.809071 0.056560
v -0.133520 1.633358 0.051920
v -0.071688 1.254846 0.060080
v -0.129353 1.482839 0.084347
v -0.122004 1.343468 -0.096513
v -0.115521 1.683688 -0.111011
v -0.087090 1.774280 -0.087241
v -0.135096 1.515950 -0.122324
v -0.087777 1.257267 -0.077688
v -0.093063 1.515950 -0.182650
v -0.057924 1.651672 -0.188553
v -0.025566 1.776823 -0.141137
v -0.059094 1.385068 -0.189160
v -0.035111 1.274577 -0.156680
v 0.028118 1.695133 -0.189322
v 0.032427 1.220590 -0.105944
v -0.020652 1.834444 -0.078478
v 0.041555 1.780614 -0.134958
v 0.061248 1.546171 -0.203630
v 0.055373 1.418054 -0.197855
v 0.101306 1.383163 -0.151532
v 0.113378 1.710934 -0.095831
v 0.034797 1.187896 -0.022131
v 0.149097 1.587232 -0.054294
v 0.129265 1.358742 -0.073901
vt 0.917417 0.513305
vt 0.919370 0.936416
vt 0.995996 0.936460
vt 0.994043 0.513349
vt 0.516306 0.968884
vt 0.516306 0.890670
vt 0.559159 0.890671
vt 0.559159 0.968884
vt 0.919370 0.936458
vt 0.840765 0.513267
vt 0.842718 0.936416
vt 0.516306 0.766938
vt 0.559130 0.767011
vt 0.559130 0.890670
vt 0.516306 0.890597
vt 0.174939 0.708000
vt 0.132086 0.708000
vt 0.132086 0.584217
vt 0.174939 0.584217
vt 0.368566 0.951130
vt 0.325715 0.951127
vt 0.325715 0.872895
vt 0.368566 0.872898
vt 0.923374 0.654266
vt 0.923374 0.530502
vt 1.000000 0.530546
vt 1.000000 0.654310
vt 0.829472 0.876231
vt 0.829472 0.954445
vt 0.786619 0.954445
vt 0.786619 0.876231
vt 0.709967 0.999957
vt 0.709967 0.876231
vt 0.786619 0.876273
vt 0.786619 1.000000
vt 0.368538 0.872895
vt 0.325715 0.872822
vt 0.325715 0.749163
vt 0.368538 0.749235
vt 0.148107 0.749163
vt 0.190960 0.749163
vt 0.190960 0.872946
vt 0.148107 0.872946
vt 0.845176 0.725183
vt 0.912570 0.725178
vt 0.912570 0.919845
vt 0.845176 0.919850
vt 0.728069 0.718436
vt 0.918646 0.718113
vt 0.918646 0.912655
vt 0.728069 0.912978
vt 0.258337 0.943838
vt 0.190960 0.943839
vt 0.258337 0.749163
vt 0.918646 0.523437
vt 0.574259 0.546876
vt 0.574259 0.741551
vt 0.448922 0.766938
vt 0.516306 0.766976
vt 0.516306 0.961561
vt 0.448922 0.961523
vt 0.979931 0.725217
vt 0.979931 0.919861
vt 0.889625 0.741543
vt 0.822232 0.741547
vt 0.822232 0.546880
vt 0.889625 0.546875
vt 0.381537 0.584082
vt 0.190960 0.584406
vt 0.728069 0.913301
vt 0.918646 0.912978
vt 0.560510 0.752093
vt 0.627887 0.752092
vt 0.627887 0.946768
vt 0.560510 0.946768
vt 0.537109 0.718113
vt 0.727878 0.718114
vt 0.727878 0.912789
vt 0.537109 0.912788
vt 0.695272 0.752130
vt 0.695272 0.946715
vt 0.627887 0.946678
vt 0.000000 0.779207
vt 0.067361 0.779246
vt 0.067361 0.973890
vt 0.000000 0.973851
vt 0.867504 0.936237
vt 0.800111 0.936241
vt 0.800111 0.741574
vt 0.867504 0.741569
vt 0.574067 0.936092
vt 0.918646 0.718436
vt 0.574067 0.741551
vt 0.923374 0.725177
vt 0.855997 0.725178
vt 0.855997 0.530502
vt 0.727878 0.523437
vt 0.934889 0.741606
vt 0.934889 0.936192
vt 0.134722 0.779246
vt 0.134722 0.973890
vt 0.732718 0.936241
vt 0.732718 0.741574
vt 0.190577 0.583893
vt 0.000000 0.584217
vt 0.537109 0.913112
vt 0.727687 0.912789
vt 0.325715 0.943838
vt 0.537109 0.523437
vt 0.448922 0.961561
vt 0.381537 0.961524
vt 0.381537 0.766938
vt 0.448922 0.766976
vt 0.956986 0.741559
vt 0.956986 0.546914
vt 0.089563 0.779207
vt 0.000000 0.779133
vt 0.000000 0.584466
vt 0.089563 0.584539
vt 0.655388 0.548610
vt 0.732718 0.546875
vt 0.732718 0.741417
vt 0.655388 0.743152
vt 0.844727 0.104573
vt 0.783068 0.082785
vt 0.796682 0.041076
vt 0.868339 0.052686
vt 0.449714 0.766910
vt 0.381537 0.572263
vt 0.449714 0.572234
vt 0.132086 0.778884
vt 0.205965 0.227335
vt 0.235437 0.202020
vt 0.278692 0.257966
vt 0.204427 0.268147
vt 0.168951 0.247700
vt 0.560510 0.495939
vt 0.510613 0.572234
vt 0.420736 0.572234
vt 0.381581 0.532279
vt 0.381537 0.440520
vt 0.993352 0.912978
vt 0.528028 0.958039
vt 0.862392 0.139313
vt 0.868339 0.163484
vt 0.840844 0.188899
vt 0.770994 0.176578
vt 0.786741 0.138202
vt 0.664731 0.572251
vt 0.581691 0.537177
vt 0.560510 0.465904
vt 0.612398 0.936460
vt 0.702280 0.936416
vt 0.739465 0.429477
vt 0.739465 0.521236
vt 0.833559 0.767725
vt 0.845176 0.836058
vt 0.813179 0.876231
vt 0.769802 0.851702
vt 0.767108 0.809863
vt 0.796422 0.779283
vt 0.187889 0.085064
vt 0.161663 0.087158
vt 0.170024 0.036920
vt 0.206710 0.043439
vt 0.022668 0.061701
vt 0.105359 0.113134
vt 0.092790 0.137143
vt 0.025762 0.129657
vt 0.857469 0.245371
vt 0.838873 0.207027
vt 0.896014 0.179004
vt 0.898708 0.220843
vt 0.929741 0.069035
vt 0.896457 0.095428
vt 0.882806 0.019677
vt 0.958796 0.028115
vt 0.976944 0.070833
vt 0.943143 0.096667
vt 0.884644 0.095180
vt 0.929360 0.094319
vt 0.925328 0.148424
vt 0.852448 0.126601
vt 0.521625 0.766916
vt 0.521625 0.572240
vt 0.755049 0.108709
vt 0.197298 0.160573
vt 0.173876 0.137064
vt 0.212162 0.121726
vt 0.229754 0.152874
vt 0.931381 0.141492
vt 0.937854 0.115656
vt 0.984423 0.132358
vt 0.955541 0.183511
vt 0.259506 0.026258
vt 0.283666 0.068277
vt 0.282970 0.106164
vt 0.742956 0.043376
vt 0.771469 0.021686
vt 0.720203 0.082732
vt 0.190958 0.951182
vt 0.148107 0.951179
vt 0.717779 0.200127
vt 0.686468 0.238349
vt 0.649479 0.219054
vt 0.670559 0.181626
vt 0.082004 0.263396
vt 0.072438 0.282740
vt 0.019494 0.220544
vt 0.039611 0.182512
vt 0.068353 0.187646
vt 0.574259 0.547144
vt 0.574259 0.741685
vt 0.662367 0.033188
vt 0.718145 0.038203
vt 0.717948 0.072407
vt 0.693317 0.091194
vt 0.634565 0.066932
vt 0.663171 0.119989
vt 0.633699 0.145304
vt 0.615834 0.101509
vt 0.901629 0.268108
vt 0.884037 0.236960
vt 0.954845 0.221398
vt 0.984423 0.229218
vt 0.945166 0.280413
vt 0.043599 0.019637
vt 0.123968 0.014541
vt 0.123968 0.064278
vt 0.122970 0.295061
vt 0.115288 0.237003
vt 0.128690 0.264635
vt 0.162491 0.238802
vt 0.168951 0.265777
vt 0.144343 0.196084
vt 0.065379 0.145640
vt 0.100651 0.152648
vt 0.137640 0.171943
vt 0.265583 0.173226
vt 0.290214 0.154439
vt 0.314981 0.187075
vt 0.314981 0.232537
vt 0.766892 0.203994
vt 0.727078 0.176781
vt 0.716645 0.154934
vn 0.000000 1.000000 0.000000
vn -1.000000 0.000000 -0.000000
vn 0.000000 -1.000000 0.000000
vn -0.000000 -0.000000 1.000000
vn 0.000000 0.000000 -1.000000
vn 1.000000 0.000000 0.000000
vn 0.997100 0.000000 0.076400
vn -0.566500 0.000000 0.824100
vn 0.125700 0.000000 -0.992100
vn 0.914200 -0.380700 0.139000
vn -0.843000 0.000000 -0.537900
vn 0.843000 0.000000 -0.537900
vn -0.596500 -0.275600 0.753800
vn 0.863200 0.019100 -0.504400
vn -0.469300 -0.856200 -0.216200
vn -0.784000 0.152100 -0.601900
vn -0.948800 -0.280000 0.146400
vn 0.808100 -0.490900 -0.325500
vn -0.216900 0.961300 -0.169900
vn 0.467600 -0.574000 0.672200
vn -0.988200 0.000000 0.152900
vn 0.999100 -0.032800 -0.026300
vn -0.761300 -0.250800 -0.597900
vn 0.692400 0.255800 -0.674700
vn -0.103600 0.010200 -0.994600
vn 0.837000 -0.022900 0.546700
vn 0.837800 0.400800 0.370700
vn -0.905600 0.408800 0.113100
vn 0.566500 0.000000 0.824100
vn 0.374900 0.281400 0.883400
vn 0.193800 -0.058500 0.979300
vn 0.259400 -0.387300 -0.884700
vn -1.000000 0.001700 -0.008100
vn -0.432300 0.474900 -0.766600
vn -0.108000 0.809300 0.577400
vn -0.625800 0.120000 0.770700
vn 0.914000 0.402700 -0.050600
s off
f 6/1/1 7/2/1 3/3/1 2/4/1
f 3/5/2 7/6/2 8/7/2 4/8/2
f 8/9/3 5/1/3 1/10/3 4/11/3
f 1/12/4 2/13/4 3/14/4 4/15/4
f 8/16/5 7/17/5 6/18/5 5/19/5
f 13/20/6 14/21/6 10/22/6 9/23/6
f 14/24/1 15/25/1 11/26/1 10/27/1
f 11/28/2 15/29/2 16/30/2 12/31/2
f 16/32/3 13/33/3 9/34/3 12/35/3
f 9/36/4 10/37/4 11/38/4 12/39/4
f 16/40/5 15/41/5 14/42/5 13/43/5
f 21/44/6 22/45/6 18/46/6 17/47/6
f 22/48/4 23/49/4 19/50/4 18/51/4
f 23/52/2 24/53/2 20/41/2 19/54/2
f 24/55/5 21/56/5 17/57/5 20/49/5
f 17/58/3 18/59/3 19/60/3 20/61/3
f 24/45/1 23/62/1 22/63/1 21/46/1
f 29/64/6 30/65/6 26/66/6 25/67/6
f 30/68/4 31/69/4 27/70/4 26/71/4
f 31/72/2 32/73/2 28/74/2 27/75/2
f 32/76/5 29/77/5 25/78/5 28/79/5
f 25/73/3 26/80/3 27/81/3 28/82/3
f 32/83/1 31/84/1 30/85/1 29/86/1
f 37/87/6 38/88/6 34/89/6 33/90/6
f 38/91/4 39/71/4 35/92/4 34/93/4
f 39/94/2 40/95/2 36/96/2 35/25/2
f 40/97/5 37/55/5 33/49/5 36/77/5
f 33/90/3 34/98/3 35/99/3 36/87/3
f 40/84/1 39/100/1 38/101/1 37/85/1
f 45/88/6 46/102/6 42/103/6 41/89/6
f 46/104/4 47/105/4 43/106/4 42/107/4
f 47/54/2 48/38/2 44/108/2 43/52/2
f 48/109/5 45/97/5 41/77/5 44/76/5
f 41/110/3 42/111/3 43/112/3 44/113/3
f 48/114/1 47/64/1 46/67/1 45/115/1
f 60/116/7 62/117/7 61/118/7 59/119/7
f 50/120/8 52/121/8 51/122/8 49/123/8
f 56/65/9 58/103/9 57/121/9 55/66/9
f 102/124/10 66/125/10 67/126/10 100/127/10
f 54/128/11 56/112/11 55/129/11 53/130/11
f 58/131/12 60/116/12 59/119/12 57/18/12
f 73/132/13 75/133/13 81/134/13 80/135/13 70/136/13
f 50/137/1 62/138/1 60/139/1 58/140/1 56/141/1 54/142/1 52/143/1
f 98/144/14 97/145/14 96/146/14 99/147/14 101/148/14 102/124/14
f 49/149/3 51/150/3 53/151/3 55/152/3 57/153/3 59/154/3 61/155/3
f 80/156/15 86/157/15 91/158/15 93/159/15 100/160/15 70/161/15
f 87/162/16 85/163/16 83/164/16 88/165/16
f 81/166/17 82/167/17 86/168/17 80/169/17
f 98/170/18 102/171/18 100/172/18 93/173/18
f 94/174/19 84/175/19 78/176/19 68/177/19 95/178/19 89/179/19
f 71/180/20 73/181/20 70/182/20 100/172/20 67/183/20
f 52/184/21 54/128/21 53/130/21 51/185/21
f 101/148/22 64/186/22 66/125/22 102/124/22
f 86/187/23 82/188/23 85/163/23 87/162/23 90/189/23 91/190/23
f 92/191/24 95/192/24 99/193/24 96/194/24
f 88/165/25 92/195/25 96/196/25 97/197/25 90/189/25 87/162/25
f 69/198/26 71/199/26 67/126/26 66/125/26 64/186/26 65/200/26
f 5/43/6 6/42/6 2/201/6 1/202/6
f 64/203/27 63/204/27 74/205/27 65/206/27
f 84/207/28 83/208/28 79/209/28 77/210/28 78/211/28
f 62/212/29 50/120/29 49/123/29 61/213/29
f 65/214/30 74/215/30 76/216/30 72/217/30 69/218/30
f 69/218/31 72/217/31 75/219/31 73/220/31 71/221/31
f 91/222/32 90/223/32 97/224/32 98/225/32 93/226/32
f 79/227/33 83/228/33 85/229/33 82/167/33 81/166/33
f 88/230/34 83/208/34 84/207/34 94/231/34 89/232/34 95/233/34 92/234/34
f 68/235/35 78/211/35 77/210/35 76/236/35 74/237/35 63/238/35
f 75/133/36 72/239/36 76/240/36 77/241/36 79/242/36 81/134/36
f 99/147/37 95/243/37 68/244/37 63/245/37 64/186/37 101/148/37
